<svg width="146" height="62" viewBox="0 0 146 62" fill="none" xmlns="http://www.w3.org/2000/svg">
<g clip-path="url(#clip0_1968_14280)">
<path d="M9.9316 7.11161C11.515 7.0696 13.0783 7.47422 14.4427 8.27923C15.6953 9.0424 16.6952 10.1581 17.3173 11.4869C17.9918 12.9565 18.3258 14.5596 18.2943 16.1764C18.3228 17.7887 17.9835 19.3863 17.3024 20.8478C16.6792 22.1758 15.6796 23.2912 14.4279 24.0554C13.0541 24.8536 11.4848 25.252 9.89689 25.2057C8.76894 25.2139 7.65624 24.9444 6.65693 24.4209C5.70911 23.9454 4.91259 23.2149 4.35678 22.3114V24.9262H0.976377V0.0355574H4.35678V9.97196C4.92082 9.08409 5.71601 8.36679 6.65693 7.89718C7.66761 7.37071 8.79219 7.10095 9.9316 7.11161ZM14.8791 10.9155H4.35598V21.4795H14.8775L14.8791 10.9155ZM21.6392 0H25.018V3.38215H21.6392V0ZM21.6392 24.927V7.3911H25.018V24.9278L21.6392 24.927ZM39.8629 21.8591V24.927H37.1106C36.3413 24.9658 35.5719 24.8501 34.8479 24.5866C34.124 24.3232 33.4601 23.9173 32.8955 23.3931C32.3575 22.8362 31.9403 22.1741 31.6701 21.4484C31.3999 20.7227 31.2824 19.949 31.3251 19.1757V10.3193H27.7363V7.39029H31.3251V1.8821H34.7055V7.39029H39.8629V10.3193H34.7055V21.8591H39.8629ZM17.357 37.3517V54.8884H13.9766V52.5176C13.4699 53.3657 12.7078 54.0315 11.7995 54.4195C10.7504 54.923 9.60001 55.1796 8.43647 55.1696C6.84178 55.2142 5.26665 54.8096 3.89066 54.0019C2.63604 53.2358 1.63101 52.1214 0.997867 50.7942C0.343193 49.3237 0.00488281 47.7319 0.00488281 46.1221C0.00488281 44.5123 0.343193 42.9205 0.997867 41.4499C1.63093 40.1227 2.63597 39.0083 3.89066 38.2423C5.2557 37.4373 6.81945 37.0327 8.40338 37.0746C9.51959 37.0693 10.6222 37.3196 11.6268 37.8065C12.5555 38.2281 13.3641 38.8754 13.979 39.6894V37.3533L17.357 37.3517ZM14.0121 40.8727H3.41868V51.4351H14.0121V40.8727ZM29.5175 55.1671C27.8805 55.2072 26.2665 54.7767 24.8667 53.9267C23.5775 53.1276 22.5343 51.9874 21.8524 50.6322C21.1641 49.2206 20.8064 47.6707 20.8064 46.1002C20.8064 44.5296 21.1641 42.9797 21.8524 41.5682C22.5342 40.2129 23.5775 39.0727 24.8667 38.2737C26.2665 37.4237 27.8805 36.9932 29.5175 37.0333C30.8362 37.0226 32.1423 37.29 33.3508 37.8181C34.495 38.3102 35.5002 39.0771 36.2775 40.0508C37.0509 41.0313 37.5342 42.209 37.6726 43.4503H34.2922C34.2093 42.9518 34.0261 42.4754 33.7536 42.0499C33.4811 41.6245 33.125 41.2588 32.707 40.9753C31.8003 40.3204 30.7057 39.9777 29.5877 39.9987C28.8489 39.9555 28.1103 40.0878 27.4323 40.3847C26.7543 40.6816 26.1561 41.1347 25.6866 41.7071C24.7991 42.9969 24.3253 44.5265 24.3283 46.0924C24.3312 47.6583 24.8108 49.1862 25.7031 50.4726C26.1689 51.0462 26.7635 51.5015 27.4386 51.8014C28.1137 52.1014 28.8501 52.2374 29.5877 52.1984C30.6697 52.2284 31.7347 51.9241 32.6376 51.3268C33.4693 50.7674 34.0698 49.925 34.3277 48.956H37.6726C37.554 49.8428 37.2604 50.6972 36.8086 51.4694C36.3568 52.2416 35.7559 52.9161 35.041 53.4537C33.4453 54.634 31.4966 55.2381 29.5133 55.1671H29.5175ZM57.2543 37.3517V54.8884H53.8756V52.5176C53.3677 53.3654 52.6052 54.031 51.6969 54.4195C50.6477 54.923 49.4974 55.1795 48.3338 55.1696C46.7392 55.2139 45.1641 54.8093 43.788 54.0019C42.5337 53.2354 41.5288 52.1211 40.8952 50.7942C40.2405 49.3237 39.9022 47.7319 39.9022 46.1221C39.9022 44.5123 40.2405 42.9205 40.8952 41.4499C41.5287 40.123 42.5337 39.0087 43.788 38.2423C45.1531 37.4375 46.7168 37.0329 48.3007 37.0746C49.4169 37.0695 50.5195 37.3198 51.5242 37.8065C52.4527 38.2284 53.2612 38.8757 53.8765 39.6894V37.3533L57.2543 37.3517ZM53.9095 40.8727H43.3095V51.4351H53.9029L53.9095 40.8727ZM78.0577 29.9953V54.8859H74.6773V52.2712C74.1215 53.1746 73.3249 53.9051 72.377 54.3806C71.378 54.904 70.2656 55.1735 69.138 55.1654C67.5541 55.2071 65.9903 54.8025 64.6252 53.9978C63.3705 53.2317 62.3655 52.1173 61.7324 50.7901C61.05 49.3352 60.7108 47.743 60.7406 46.1361C60.712 44.5236 61.0511 42.9257 61.7324 41.464C62.3583 40.1332 63.3569 39.0128 64.607 38.239C65.9652 37.4328 67.5238 37.0279 69.1025 37.0713C70.2421 37.0602 71.3669 37.3297 72.3778 37.8561C73.3188 38.3257 74.114 39.043 74.6781 39.9309V29.9953H78.0577ZM74.6773 40.8727H64.1541V51.4351H74.6773V40.8727ZM98.4411 49.1702C98.1553 50.9196 97.1913 52.4856 95.7583 53.5281C94.1759 54.6579 92.2652 55.234 90.3223 55.1671C88.684 55.2017 87.0701 54.7661 85.6715 53.9118C84.3574 53.099 83.2908 51.9416 82.5878 50.5652C81.8632 49.1529 81.4925 47.5855 81.5075 45.9981C81.4881 44.4348 81.8343 42.8886 82.5183 41.483C83.1696 40.1483 84.184 39.0244 85.445 38.2406C86.8095 37.4148 88.3818 36.9973 89.976 37.0374C91.5496 36.9939 93.1046 37.3859 94.4697 38.1703C95.6908 38.8895 96.6821 39.9415 97.3278 41.2035C97.9836 42.4933 98.3182 43.9226 98.3031 45.3696C98.3045 45.8116 98.2813 46.2533 98.2337 46.6927H84.8194C84.8876 48.2014 85.493 49.636 86.5261 50.7372C87.0183 51.2423 87.6101 51.6395 88.2639 51.9036C88.9177 52.1677 89.6192 52.2928 90.3239 52.2712C91.4268 52.3182 92.5192 52.0392 93.4647 51.469C94.2754 50.9372 94.8495 50.1128 95.0673 49.1677L98.4411 49.1702ZM89.9751 39.7572C88.7527 39.706 87.5546 40.1096 86.6121 40.8901C85.6768 41.7679 85.0786 42.9459 84.9218 44.2193H94.8838C94.8676 43.5991 94.726 42.9886 94.4677 42.4246C94.2093 41.8606 93.8395 41.3547 93.3805 40.9375C92.9216 40.5203 92.3831 40.2003 91.7972 39.9969C91.2114 39.7935 90.5905 39.7108 89.9719 39.7539L89.9751 39.7572ZM121.719 37.073C122.554 37.0343 123.388 37.1762 124.164 37.489C124.94 37.8018 125.639 38.2781 126.214 38.8856C127.377 40.2241 127.976 41.9606 127.887 43.7314V54.8876H124.507V40.838H116.49V54.8876H113.145V40.838H105.165V54.8876H101.784V37.3517H105.165V39.653C105.706 38.8801 106.422 38.247 107.256 37.8056C108.124 37.3384 109.091 37.0874 110.077 37.0738H110.531C111.618 37.0849 112.688 37.3347 113.667 37.8056C113.79 38.3308 114.086 38.7991 114.508 39.1344C114.93 39.4696 115.453 39.652 115.992 39.652C116.531 39.652 117.055 39.4696 117.477 39.1344C117.899 38.7991 118.195 38.3308 118.318 37.8056C119.291 37.3333 120.356 37.0834 121.437 37.0738L121.719 37.073ZM137.191 62H133.95L136.319 55.062L129.803 37.3169H133.288L137.886 50.4949L142.521 37.3169H146.006L139.839 54.2608L137.191 62Z" fill="#0074FF"/>
</g>
<defs>
<clipPath id="clip0_1968_14280">
<rect width="146" height="62" fill="white"/>
</clipPath>
</defs>
</svg>
